<?xml version="1.0" encoding="UTF-8" standalone="no"?><!DOCTYPE svg PUBLIC "-//W3C//DTD SVG 1.1//EN" "http://www.w3.org/Graphics/SVG/1.1/DTD/svg11.dtd"><svg width="100%" height="100%" viewBox="0 0 500 500" version="1.1" xmlns="http://www.w3.org/2000/svg" xmlns:xlink="http://www.w3.org/1999/xlink" xml:space="preserve" xmlns:serif="http://www.serif.com/" style="fill-rule:evenodd;clip-rule:evenodd;stroke-linejoin:round;stroke-miterlimit:2;"><path d="M0,480.577l500,-485.577l-500,0l0,485.577Z" style="fill:#ffd64f;"/><path d="M500,14.423l-500,485.577l500,0l0,-485.577Z" style="fill:#ffa62d;"/><path d="M306.562,202.281l48.343,-46.948c2.31,3.386 4.49,6.932 6.541,10.639c11.396,20.601 17.095,45.718 17.095,75.349c-0,29.631 -5.699,54.748 -17.095,75.349c-6.746,12.195 -14.897,22.654 -24.454,31.378l39.708,48.968l-58.912,0l-20.993,-25.104c-14.488,5.164 -30.108,7.746 -46.861,7.746c-24.196,0 -45.981,-5.391 -65.355,-16.174c-9.179,-5.109 -17.458,-11.315 -24.837,-18.618l44.536,-43.251c3.579,4.623 7.708,8.502 12.387,11.636c9.293,6.225 20.382,9.337 33.269,9.337c3.357,-0 6.59,-0.209 9.697,-0.625l-32.294,-42.742l0.029,-0.028l52.55,-0l16.609,21.2c3.122,-4.273 5.805,-9.148 8.047,-14.625c4.953,-12.098 7.43,-26.914 7.43,-44.447c-0,-15.003 -1.813,-28.016 -5.44,-39.04Z" style="fill:#ffd64f;"/><path d="M150.438,334.479c-4.383,-5.515 -8.366,-11.517 -11.95,-18.006c-11.352,-20.558 -17.029,-45.608 -17.029,-75.152c0,-29.631 5.677,-54.748 17.029,-75.349c11.353,-20.602 26.717,-36.25 46.091,-46.945c19.374,-10.696 41.159,-16.043 65.355,-16.043c24.108,-0 45.872,5.347 65.29,16.043c11.878,6.542 22.255,14.937 31.131,25.186l-45.741,44.421c-4.544,-8.105 -10.326,-14.52 -17.345,-19.243c-9.248,-6.224 -20.36,-9.337 -33.335,-9.337c-12.887,0 -23.976,3.113 -33.269,9.337c-9.293,6.224 -16.416,15.385 -21.369,27.483c-4.953,12.098 -7.429,26.914 -7.429,44.447c-0,17.533 2.476,32.349 7.429,44.447c0.505,1.234 1.033,2.437 1.583,3.609l-46.441,45.102Z" style="fill:#ffa62d;"/></svg>